<svg version="1.1" id="Layer_1" xmlns="http://www.w3.org/2000/svg" xmlns:xlink="http://www.w3.org/1999/xlink" 
	 viewBox="0 0 512 512" xml:space="preserve">
<rect x="21.264" y="387.75" style="fill:#9FA7BF;" width="293.282" height="28.312"/>
<g>
	<polygon style="fill:#AFB9D2;" points="459.645,184.64 336.064,184.64 332.163,213.493 463.583,213.493 	"/>
	<polygon style="fill:#AFB9D2;" points="253.768,95.938 82.817,95.938 78.946,124.515 257.637,124.515 	"/>
</g>
<g>
	<path style="fill:#EFF2FA;" d="M491.152,416.062l-26.668-195.941H331.271l-21.775,161.001h8.363c1.827,0,3.314,1.487,3.314,3.314
		v31.626H491.152z"/>
	<polygon style="fill:#EFF2FA;" points="258.538,131.143 78.056,131.143 44.194,381.122 292.389,381.122 	"/>
</g>
<path d="M317.86,375.599c4.883,0,8.837,3.955,8.837,8.837v26.103h158.129l-25.164-184.894H336.097l-20.281,149.955H317.86z
	 M503.163,410.539c4.883,0,8.837,3.955,8.837,8.837c0,4.871-3.955,8.837-8.837,8.837H317.86H17.95H8.837
	c-4.883,0-8.837-3.966-8.837-8.837c0-4.883,3.955-8.837,8.837-8.837h0.276v-26.103c0-4.883,3.955-8.837,8.837-8.837h14.736
	L71.161,91.442c0.597-4.385,4.341-7.655,8.76-7.655h176.742c4.43,0,8.163,3.27,8.76,7.655l35.525,262.285l18.58-137.472
	c0.033-0.464,0.088-0.906,0.177-1.348l4.706-34.774c0.597-4.374,4.33-7.644,8.76-7.644h129.375c4.419,0,8.163,3.259,8.76,7.644
	l31.361,230.406L503.163,410.539L503.163,410.539z M457.254,207.97l-2.43-17.807H340.891l-2.408,17.807H457.254z M309.023,410.539
	v-17.266h-12.836h-0.011c-0.011,0-0.022,0-0.033,0H26.787v17.266H309.023z M286.068,375.599l-32.355-238.933H82.881L50.515,375.599
	H286.068z M251.316,118.992l-2.375-17.531H87.642l-2.375,17.531H251.316z"/>
</svg>
